<?xml version="1.0" encoding="UTF-8"?>
<svg version="1.1" xmlns="http://www.w3.org/2000/svg" width="64" height="64">
<path d="M0 0 C21.12 0 42.24 0 64 0 C64 21.12 64 42.24 64 64 C42.88 64 21.76 64 0 64 C0 42.88 0 21.76 0 0 Z " fill="#FDFDFD" transform="translate(0,0)"/>
<path d="M0 0 C3.37838966 1.21291809 5.93537919 2.66551434 8.203125 5.43359375 C9.68464113 10.09105463 9.67377183 13.5091089 7.453125 17.87109375 C5.203125 20.43359375 5.203125 20.43359375 2.203125 22.43359375 C2.81671875 22.9234375 3.4303125 23.41328125 4.0625 23.91796875 C6.922768 27.2793056 7.53804024 30.43820051 8.453125 34.68359375 C8.62585938 35.42867187 8.79859375 36.17375 8.9765625 36.94140625 C9.39836028 38.76919662 9.80252059 40.60104167 10.203125 42.43359375 C7.233125 42.43359375 4.263125 42.43359375 1.203125 42.43359375 C-0.87822807 37.13560411 -2.50979113 31.97795504 -3.796875 26.43359375 C-6.436875 26.10359375 -9.076875 25.77359375 -11.796875 25.43359375 C-11.796875 31.04359375 -11.796875 36.65359375 -11.796875 42.43359375 C-15.096875 42.43359375 -18.396875 42.43359375 -21.796875 42.43359375 C-21.796875 28.57359375 -21.796875 14.71359375 -21.796875 0.43359375 C-16.22630169 -2.3516929 -6.05953411 -1.22714029 0 0 Z " fill="#080808" transform="translate(38.796875,11.56640625)"/>
<path d="M0 0 C1.258125 -0.04125 2.51625 -0.0825 3.8125 -0.125 C4.52019531 -0.14820312 5.22789063 -0.17140625 5.95703125 -0.1953125 C8 0 8 0 11 2 C11.36750064 5.36875585 11.57975504 7.87672462 10 10.9375 C6.73357754 12.67278693 3.65648548 12.17982715 0 12 C0 8.04 0 4.08 0 0 Z " fill="#F8F8F8" transform="translate(27,18)"/>
</svg>
